<?xml version="1.0" standalone="no"?>
<!DOCTYPE svg PUBLIC "-//W3C//DTD SVG 20010904//EN"
 "http://www.w3.org/TR/2001/REC-SVG-20010904/DTD/svg10.dtd">
<svg version="1.0" xmlns="http://www.w3.org/2000/svg"
 width="500.000000pt" height="500.000000pt" viewBox="0 0 500.000000 500.000000"
 preserveAspectRatio="xMidYMid meet">

<g transform="translate(0.000000,500.000000) scale(0.100000,-0.100000)"
fill="#000000" stroke="none">
<path d="M2377 4509 c-4 -18 -17 -279 -22 -434 0 -5 18 -11 41 -13 l41 -3 6
98 c4 54 7 136 8 183 1 103 7 93 49 -79 27 -108 29 -128 18 -149 -11 -22 -10
-26 11 -44 18 -14 37 -18 69 -16 l44 3 64 165 c35 91 66 170 69 175 5 11 -2
-195 -11 -292 l-6 -63 45 0 44 0 6 68 c4 37 10 142 13 235 l7 167 -66 0 -66 0
-29 -77 c-17 -43 -47 -122 -67 -176 -21 -54 -40 -96 -42 -94 -2 2 -23 82 -48
177 -24 94 -45 174 -48 176 -2 2 -31 7 -64 10 -57 6 -60 5 -66 -17z"/>
<path d="M2245 4514 c-5 -1 -27 -5 -48 -9 -21 -3 -40 -11 -42 -18 -2 -7 -16
-51 -30 -99 -14 -49 -29 -88 -33 -88 -4 1 -33 37 -65 80 -36 48 -66 80 -77 80
-29 0 -80 -12 -80 -19 0 -3 44 -62 99 -129 98 -124 98 -124 112 -205 l14 -82
44 2 c24 1 45 4 47 6 2 2 -3 43 -12 93 l-15 89 51 149 c27 82 49 150 47 151
-1 1 -6 1 -12 -1z"/>
<path d="M3021 4393 c-62 -213 -101 -353 -101 -366 0 -8 12 -17 28 -20 15 -3
34 -8 43 -12 13 -5 20 7 35 65 24 94 25 95 64 81 82 -28 173 -3 204 56 34 68
29 132 -17 181 -19 20 -188 82 -224 82 -7 0 -21 -30 -32 -67z m155 -49 c84
-40 39 -145 -56 -129 -46 8 -47 13 -24 91 17 59 26 64 80 38z"/>
<path d="M1570 4343 c-19 -8 -36 -16 -38 -17 -1 -2 32 -95 73 -207 41 -112 77
-210 80 -216 3 -9 26 -5 85 17 45 17 83 30 86 30 2 0 10 -16 18 -35 8 -19 27
-46 42 -60 69 -64 115 6 59 89 -14 20 -24 40 -23 44 3 8 -19 72 -25 72 -2 0
-41 -14 -86 -30 -46 -17 -86 -29 -88 -26 -2 2 -26 64 -54 137 -27 74 -56 153
-65 177 -17 47 -16 46 -64 25z"/>
<path d="M3371 4117 c-50 -115 -88 -213 -84 -217 13 -11 73 -33 78 -28 15 15
184 413 178 419 -5 4 -24 14 -44 22 l-35 14 -93 -210z"/>
<path d="M1253 4187 c-17 -7 -52 -27 -78 -45 -114 -81 -110 -235 9 -358 85
-88 170 -93 282 -19 114 75 125 210 26 339 -63 84 -152 115 -239 83z m132
-112 c65 -66 94 -145 71 -199 -28 -68 -108 -94 -166 -54 -51 34 -100 121 -100
176 0 37 6 50 34 78 29 29 41 34 80 34 39 0 51 -5 81 -35z"/>
<path d="M3591 4019 c-105 -82 -191 -153 -191 -157 0 -4 18 -17 40 -30 l41
-23 44 37 45 36 71 -43 c77 -48 73 -39 54 -134 -5 -26 -2 -33 29 -52 20 -13
39 -23 43 -23 5 0 32 107 61 237 l54 237 -23 17 c-12 9 -35 24 -50 33 l-27 16
-191 -151z m189 0 c-6 -24 -18 -67 -26 -96 l-15 -52 -47 30 c-26 16 -47 34
-47 40 0 10 137 130 143 124 2 -1 -2 -23 -8 -46z"/>
<path d="M2530 3999 l0 -41 -35 31 c-48 42 -65 41 -65 -6 0 -46 30 -98 70
-121 29 -17 30 -18 30 -99 0 -46 -3 -83 -6 -83 -3 0 -15 11 -25 24 -35 45
-129 74 -129 41 0 -28 38 -92 67 -110 15 -10 41 -21 58 -25 30 -6 30 -7 33
-78 2 -55 6 -72 17 -72 12 0 15 16 15 75 0 75 0 75 27 75 50 0 123 76 123 130
0 11 -7 20 -15 20 -30 0 -90 -31 -112 -58 l-23 -27 0 87 c0 87 0 88 30 103 40
20 59 51 66 108 6 40 4 47 -11 47 -9 0 -32 -15 -51 -34 l-34 -34 0 44 c0 32
-4 44 -15 44 -11 0 -15 -11 -15 -41z"/>
<path d="M3168 3999 c-42 -22 -64 -50 -78 -100 -12 -40 -5 -69 16 -69 57 0
113 76 114 153 0 42 -2 43 -52 16z"/>
<path d="M2061 3900 c-12 -20 -21 -52 -21 -75 -1 -35 -2 -38 -14 -22 -13 16
-46 24 -46 10 0 -4 10 -18 23 -31 l22 -25 -22 12 c-28 14 -98 14 -124 0 -20
-10 -20 -11 -2 -31 44 -49 128 -71 188 -48 27 10 64 77 65 115 0 30 -18 88
-34 110 -13 18 -15 18 -35 -15z"/>
<path d="M2974 3903 c-23 -35 -30 -114 -14 -153 36 -86 157 -95 229 -17 l24
26 -27 11 c-36 13 -82 13 -108 -1 -21 -11 -21 -11 1 19 24 34 9 51 -21 24 -17
-14 -18 -13 -18 9 0 23 -34 109 -43 109 -3 0 -13 -12 -23 -27z"/>
<path d="M2196 3770 c-32 -38 -39 -65 -34 -125 3 -37 1 -44 -12 -39 -69 30
-91 34 -140 23 -45 -10 -48 -12 -37 -30 7 -11 29 -31 50 -46 49 -34 144 -38
178 -7 52 47 72 132 48 205 -17 51 -24 53 -53 19z"/>
<path d="M2832 3767 c-16 -45 -15 -132 2 -165 28 -54 61 -75 118 -75 59 0 100
17 137 57 28 30 26 35 -25 46 -42 10 -85 4 -126 -16 l-27 -14 6 34 c6 38 -11
98 -39 139 -25 35 -31 34 -46 -6z"/>
<path d="M1580 3624 c0 -50 27 -102 62 -120 76 -39 78 76 2 135 -42 33 -64 28
-64 -15z"/>
<path d="M3419 3621 c-33 -32 -39 -45 -39 -80 0 -40 5 -46 40 -41 29 4 59 42
70 91 20 80 -9 92 -71 30z"/>
<path d="M2327 3609 c-35 -20 -60 -88 -55 -151 2 -32 3 -58 2 -58 -2 0 -20 11
-40 25 -43 29 -91 40 -142 32 -32 -6 -47 0 -125 49 -49 30 -91 53 -94 51 -4
-4 22 -123 43 -194 5 -18 3 -21 -15 -16 -25 6 -28 -15 -10 -66 6 -18 10 -34 8
-36 -2 -2 -26 25 -52 61 -39 53 -46 67 -37 83 16 31 12 99 -10 141 -11 22 -25
40 -31 40 -13 0 -39 -62 -39 -96 0 -21 -3 -25 -17 -18 -29 13 -113 17 -113 6
0 -20 54 -75 87 -88 18 -8 45 -14 60 -14 23 0 35 -11 66 -58 21 -31 45 -67 53
-78 15 -21 14 -21 -32 2 -48 24 -134 33 -134 14 0 -21 73 -89 106 -100 19 -7
55 -10 81 -8 l46 3 29 -85 c15 -46 27 -88 26 -92 -2 -5 -44 17 -95 48 -82 50
-113 59 -113 35 0 -4 54 -41 119 -82 66 -41 122 -82 124 -91 3 -12 -6 -24 -28
-37 l-34 -19 55 -55 c38 -38 54 -62 54 -80 l0 -27 -58 33 c-31 17 -80 45 -108
61 l-51 29 5 47 c3 31 -1 57 -12 78 -16 31 -74 82 -94 82 -29 0 -21 -89 14
-138 12 -18 -3 -13 -83 29 -144 76 -143 75 -143 110 0 66 -57 138 -122 154
-25 6 -28 4 -28 -16 0 -42 20 -98 46 -129 l26 -30 -52 0 c-48 0 -110 -21 -110
-38 0 -5 19 -19 43 -32 53 -30 128 -32 174 -5 l31 18 84 -43 c45 -23 86 -46
90 -49 4 -4 -16 -7 -45 -7 -30 0 -71 -9 -97 -20 l-45 -20 28 -18 c75 -50 151
-57 220 -23 l46 24 83 -48 83 -49 -55 0 c-61 0 -146 -32 -134 -51 13 -21 89
-49 137 -49 52 0 104 18 125 43 12 14 18 13 60 -13 44 -27 47 -28 59 -11 7 10
21 21 32 24 17 4 19 -2 23 -61 3 -51 9 -68 26 -82 12 -10 22 -23 22 -29 0 -8
-121 -11 -412 -11 l-412 0 -25 30 c-24 29 -28 30 -59 19 -18 -6 -43 -8 -57 -5
-13 3 -27 1 -30 -4 -4 -6 -23 -10 -43 -10 -57 0 -136 -11 -146 -21 -6 -5 -22
-9 -38 -9 l-27 0 -3 143 -3 142 -72 3 -73 3 -1 -228 c-1 -252 -2 -273 -25
-290 -8 -6 -15 -14 -15 -17 3 -20 0 -28 -6 -22 -5 4 -10 119 -13 254 l-5 247
-67 3 -68 3 0 -221 c0 -212 -7 -269 -31 -255 -5 4 -9 1 -9 -5 0 -7 8 -9 21 -5
20 7 20 6 4 -19 -17 -26 -35 -34 -35 -16 0 6 6 10 13 10 9 0 9 2 0 8 -8 5 -14
74 -19 215 l-7 208 -61 -3 -61 -3 -6 -100 c-12 -189 -10 -610 3 -623 7 -7 38
-12 69 -12 56 0 58 1 64 31 5 24 11 29 28 27 18 -2 23 -11 27 -48 l5 -45 65 0
65 0 3 48 c3 46 4 48 30 45 24 -3 28 -8 32 -48 l5 -45 70 0 70 0 3 193 c2 157
5 192 17 192 7 0 17 -10 20 -22 4 -13 21 -41 38 -62 l30 -39 -12 -201 c-16
-260 -13 -277 91 -456 34 -58 63 -107 64 -108 5 -8 264 30 332 48 140 38 232
102 280 194 l26 51 8 -38 c17 -82 85 -174 163 -223 l44 -29 3 -69 3 -70 195
-118 c107 -64 201 -117 209 -118 8 0 103 53 212 118 l199 117 0 70 1 70 40 25
c66 41 134 119 157 183 12 32 22 65 22 75 0 9 14 -8 30 -38 57 -104 147 -165
304 -205 80 -20 305 -51 310 -43 19 27 119 213 131 242 29 70 34 135 23 334
l-10 192 31 35 c17 20 34 47 37 60 3 14 12 25 20 25 11 0 14 -37 16 -192 l3
-193 70 0 70 0 5 45 c4 40 8 45 32 48 26 3 27 1 30 -45 l3 -48 65 0 65 0 3 48
c3 46 5 48 30 45 18 -2 28 -10 32 -28 5 -22 12 -25 59 -28 76 -4 81 3 81 114
0 77 3 94 15 94 8 0 15 5 15 10 0 6 -6 10 -14 10 -12 0 -15 27 -16 148 0 81
-2 156 -5 167 -2 11 -4 59 -4 108 l-1 87 -64 0 -63 0 -5 -191 c-4 -138 -9
-193 -18 -199 -10 -6 -9 -9 1 -12 8 -3 11 -8 8 -12 -9 -10 -40 5 -38 18 1 6
-1 18 -4 26 -4 8 -8 112 -9 230 l-3 215 -65 0 -65 0 -3 -237 c-2 -202 -5 -238
-17 -238 -8 0 -15 -5 -15 -11 0 -5 5 -7 10 -4 6 3 10 1 10 -4 0 -6 -9 -11 -20
-11 -23 0 -23 0 -10 35 7 17 7 24 0 20 -6 -4 -10 53 -11 162 0 92 -2 179 -3
193 -1 14 -3 53 -4 88 l-2 63 -72 -3 -73 -3 -3 -142 -3 -143 -24 0 c-13 0 -26
4 -29 9 -3 4 -46 12 -96 15 -49 4 -93 12 -96 18 -3 5 -20 7 -38 4 -17 -3 -46
-2 -64 3 -29 9 -34 7 -54 -20 l-22 -29 -423 0 c-233 0 -423 3 -423 7 0 4 12
17 26 28 23 19 26 27 25 83 0 47 3 62 13 62 25 0 46 -12 46 -26 0 -19 4 -18
50 12 l40 27 49 -27 c62 -33 129 -35 191 -3 25 12 45 27 44 32 -2 21 -70 45
-129 45 l-60 0 79 46 78 46 41 -18 c61 -28 145 -25 202 6 25 13 45 28 45 31 0
17 -80 43 -131 43 l-57 1 71 38 c38 21 79 44 90 52 17 12 23 11 47 -7 46 -34
110 -35 175 -4 30 15 55 32 55 36 0 20 -61 40 -121 40 l-62 0 27 25 c32 30 46
64 46 116 0 37 -2 40 -22 34 -62 -18 -110 -76 -118 -142 l-5 -47 -110 -63
c-60 -34 -114 -62 -118 -63 -4 0 2 13 14 29 26 35 39 131 19 131 -27 0 -77
-41 -99 -80 -18 -32 -22 -52 -18 -86 l4 -43 -101 -61 c-57 -33 -105 -60 -107
-60 -3 0 -4 13 -1 29 2 18 23 47 53 77 l50 49 -32 26 c-21 17 -30 32 -26 41 3
9 55 46 116 82 117 71 129 82 113 98 -7 7 -39 -7 -101 -46 -50 -31 -91 -50
-91 -44 0 7 11 49 24 93 l23 80 46 -3 c65 -5 110 13 151 59 50 55 47 62 -24
57 -43 -3 -69 -11 -93 -28 l-32 -24 17 24 c10 14 34 51 54 83 32 49 41 57 67
57 44 0 110 35 130 69 9 16 17 32 17 35 0 12 -82 6 -109 -9 l-29 -14 0 39 c0
21 -8 53 -17 71 l-17 32 -23 -39 c-31 -52 -39 -97 -25 -138 10 -32 8 -38 -30
-97 -48 -75 -55 -82 -45 -49 5 14 11 40 16 58 7 33 7 33 -23 27 -27 -6 -29 -5
-23 14 22 71 54 196 50 200 -3 2 -43 -21 -90 -53 -83 -55 -87 -56 -135 -50
-54 7 -127 -13 -150 -42 -21 -24 -28 -16 -20 27 12 63 -7 125 -49 163 -30 27
-42 11 -48 -66 -4 -55 -1 -70 24 -120 18 -35 26 -62 21 -70 -5 -9 -8 -7 -8 7
0 45 -96 142 -118 120 -11 -10 -1 -88 15 -120 8 -16 28 -44 44 -61 29 -30 29
-31 13 -69 l-16 -39 -29 34 c-17 19 -48 59 -70 88 -22 28 -41 52 -43 52 -5 0
-103 -122 -128 -158 l-16 -25 -19 44 -20 44 37 43 c35 39 60 103 60 151 0 54
-96 -16 -121 -88 -7 -22 -14 -29 -19 -21 -5 7 2 27 16 47 26 39 39 106 31 165
-7 49 -16 60 -40 47z m-255 -216 c79 -53 144 -78 185 -70 29 5 34 -1 72 -91
l30 -72 -39 31 c-26 21 -53 33 -84 36 -53 6 -55 1 -26 -57 18 -35 18 -40 5
-40 -9 0 -14 4 -11 9 4 5 -2 7 -11 5 -12 -3 -46 20 -97 65 -77 68 -80 72 -102
148 -13 43 -23 84 -24 91 0 15 -2 16 102 -55z m1018 -24 l-20 -84 -88 -82
c-81 -78 -122 -101 -122 -70 0 7 5 18 10 23 6 6 14 25 19 42 9 31 8 32 -19 32
-42 0 -81 -17 -119 -53 -22 -22 -30 -25 -24 -12 6 11 22 52 37 92 l27 72 34
-6 c49 -8 100 13 194 78 47 32 86 57 88 55 2 -2 -5 -41 -17 -87z m-415 -294
c60 -77 112 -144 116 -149 4 -5 72 53 150 128 78 75 143 135 145 133 2 -2 -9
-43 -25 -93 -23 -72 -58 -186 -87 -281 -2 -10 -13 -9 -45 2 -23 8 -57 15 -75
15 -27 0 -34 -4 -34 -20 0 -14 11 -22 41 -30 67 -18 89 -32 89 -54 0 -38 -13
-47 -51 -36 -144 42 -418 52 -601 21 -62 -11 -121 -23 -130 -26 -11 -5 -19 2
-26 24 -10 29 -9 32 17 45 15 8 49 20 74 27 35 8 47 16 47 30 0 15 -7 19 -39
19 -21 0 -56 -6 -78 -14 l-40 -14 -14 41 c-7 23 -13 44 -14 47 -1 3 -4 12 -8
20 -13 35 -87 266 -87 274 0 11 55 -37 182 -160 58 -57 108 -104 111 -104 2 0
59 72 128 160 94 122 126 157 135 147 6 -6 59 -75 119 -152z m-1242 -721 c47
-67 52 -84 22 -84 -18 0 -30 10 -47 41 -20 35 -26 39 -51 35 -19 -4 -30 -1
-33 9 -11 28 4 45 41 45 31 0 40 -6 68 -46z m2355 19 c-2 -23 -8 -28 -31 -28
-20 -1 -33 -9 -47 -33 -18 -29 -63 -52 -77 -39 -3 4 12 33 33 67 38 58 40 60
82 60 41 0 43 -1 40 -27z m-2514 -5 c11 -41 7 -86 -9 -91 -8 -4 -16 -3 -19 1
-4 6 -9 86 -7 105 2 17 29 5 35 -15z m2600 13 c7 -11 -5 -111 -13 -111 -25 1
-33 20 -26 69 6 47 24 67 39 42z m-2684 -61 c0 -58 -23 -71 -34 -19 -11 54 -8
69 14 69 17 0 20 -7 20 -50z m2770 31 c0 -40 -13 -81 -26 -81 -15 0 -20 54 -8
84 9 22 34 20 34 -3z m-2860 -31 c0 -16 0 -33 0 -37 0 -5 -11 -9 -25 -11 -19
-3 -25 1 -25 15 0 10 -3 28 -6 41 -6 19 -3 22 25 22 28 0 31 -3 31 -30z m1160
18 c0 -7 -3 -23 -6 -35 l-6 -23 -351 0 c-379 0 -355 -3 -388 53 -9 16 11 17
371 17 297 0 380 -3 380 -12z m1340 6 c0 -3 -8 -19 -17 -35 l-17 -29 -358 0
c-280 0 -358 3 -358 13 0 6 -3 22 -6 35 l-6 22 381 0 c209 0 381 -3 381 -6z
m470 -34 c0 -38 -2 -40 -30 -40 -28 0 -30 2 -30 40 0 38 2 40 30 40 28 0 30
-2 30 -40z m-1232 -204 c31 -10 72 -26 90 -35 l33 -17 -28 -20 c-23 -17 -48
-22 -133 -26 -65 -3 -120 -11 -144 -21 -36 -16 -38 -16 -32 0 4 10 19 65 34
123 21 82 32 110 53 127 15 13 35 40 45 60 l19 38 3 -106 3 -106 57 -17z
m-461 144 c25 -28 41 -65 66 -154 33 -114 33 -117 13 -111 -64 20 -99 25 -176
25 -75 1 -89 4 -115 25 l-29 24 49 21 c28 12 69 27 92 33 l43 11 1 101 c0 82
2 96 12 81 7 -11 27 -36 44 -56z m-122 -54 c0 -13 -16 -24 -61 -40 -33 -12
-76 -32 -95 -43 -32 -20 -37 -21 -89 -7 -165 45 -370 -41 -430 -181 -10 -24
-36 -59 -57 -79 l-38 -35 -42 41 c-22 22 -43 52 -46 67 -2 14 -12 56 -23 94
l-18 67 24 17 c14 10 51 41 83 70 l57 53 368 -2 c350 -3 367 -4 367 -22z
m1411 -46 c43 -38 80 -70 84 -70 4 0 -6 -42 -22 -94 -22 -72 -37 -103 -66
-133 l-38 -40 -38 33 c-20 17 -48 55 -62 83 -33 66 -110 134 -182 162 -73 28
-181 35 -250 16 -53 -14 -54 -14 -120 19 -37 19 -74 34 -83 34 -26 0 -53 26
-46 44 6 14 42 16 376 16 l371 0 76 -70z m-2349 -185 c30 -93 42 -116 79 -154
67 -68 89 -121 89 -217 0 -71 -3 -85 -28 -122 -15 -23 -31 -42 -36 -42 -5 0
-12 19 -16 42 -4 22 -32 88 -62 145 -50 96 -55 112 -68 216 -25 205 -26 249
-9 245 10 -2 28 -42 51 -113z m2539 73 c-3 -24 -8 -72 -11 -108 -16 -174 -26
-212 -81 -320 -41 -80 -54 -117 -54 -149 0 -53 -13 -51 -55 8 -25 36 -30 54
-33 116 -4 62 0 82 21 129 14 30 46 77 70 103 35 38 52 69 82 156 25 71 43
107 52 107 12 0 14 -9 9 -42z m-1791 -23 c55 -28 82 -55 55 -55 -7 0 -25 -9
-41 -21 -24 -17 -28 -24 -18 -35 10 -13 15 -13 34 0 102 67 311 56 392 -20
l35 -33 -4 -101 -3 -101 -41 -39 c-54 -50 -129 -68 -219 -53 -121 21 -197 80
-235 181 l-21 57 25 22 c14 12 26 24 26 27 0 2 -23 -4 -50 -15 -65 -25 -87
-24 -124 5 -60 46 -113 66 -171 66 -31 0 -55 4 -55 10 0 23 90 99 141 119 82
32 194 26 274 -14z m1268 5 c27 -13 67 -45 90 -70 l42 -45 -65 -6 c-74 -7
-121 -24 -166 -62 -36 -30 -69 -33 -129 -12 -45 16 -57 13 -26 -7 28 -17 27
-48 -4 -107 -50 -99 -151 -155 -280 -155 -87 0 -133 15 -179 60 l-36 35 0 103
c0 118 5 127 95 167 80 36 182 37 278 5 74 -25 97 -26 97 -6 0 5 -18 20 -41
33 l-40 24 36 23 c61 38 114 50 200 47 60 -2 92 -9 128 -27z m-1594 -190 c49
-14 81 -47 81 -85 0 -63 -85 -120 -197 -131 l-58 -6 -21 68 -22 69 21 29 c38
53 122 78 196 56z m1754 -4 c18 -7 47 -29 64 -48 l33 -34 -20 -52 c-11 -29
-20 -60 -20 -70 0 -17 -6 -18 -62 -10 -122 16 -217 86 -203 148 8 34 25 49 71
65 50 18 97 18 137 1z m-1413 -324 c0 -52 -54 -3 -75 67 -7 23 -5 22 34 -10
26 -22 41 -42 41 -57z m1015 51 c-7 -28 -42 -73 -57 -73 -21 0 -6 50 23 74 39
33 43 33 34 -1z m-458 -34 c51 -20 104 -33 151 -36 39 -3 72 -9 72 -13 0 -4
-9 -15 -21 -26 -29 -26 -82 -23 -194 11 -49 15 -94 27 -100 27 -5 0 -50 -12
-100 -27 -104 -31 -146 -33 -180 -11 -38 25 -30 36 28 36 34 0 85 12 147 34
52 19 101 35 107 35 7 1 47 -13 90 -30z m-877 -4 c-14 -17 -86 -51 -129 -60
l-35 -7 27 32 c15 17 27 36 27 41 0 4 27 8 60 8 49 -1 59 -4 50 -14z m1690 4
c0 -6 14 -24 31 -40 17 -16 27 -29 22 -29 -28 0 -112 33 -138 54 l-30 25 58 1
c35 0 57 -4 57 -11z m-1208 -159 c4 0 8 -11 8 -25 0 -14 -5 -25 -11 -25 -20 0
-89 77 -89 100 0 20 3 19 42 -14 23 -20 45 -36 50 -36z m703 20 c-14 -27 -67
-70 -87 -70 -5 0 -8 10 -8 23 0 15 11 28 35 41 19 10 42 28 52 38 23 26 28 7
8 -32z m-427 -51 l-3 -74 -86 -3 c-83 -3 -87 -2 -93 20 -11 43 -6 64 22 90 36
34 135 64 155 48 4 -4 7 -40 5 -81z m132 76 c51 -10 110 -46 115 -70 2 -11 3
-33 2 -50 -2 -30 -2 -30 -72 -33 -115 -5 -115 -5 -115 89 0 72 2 80 18 75 9
-2 33 -8 52 -11z m-416 -171 c16 -6 23 -54 8 -54 -14 0 -32 23 -32 42 0 20 1
21 24 12z m656 -19 c0 -14 -8 -29 -20 -35 -17 -9 -20 -8 -20 13 0 23 16 47 32
47 4 0 8 -11 8 -25z m-372 -74 c-2 -30 -7 -47 -13 -42 -5 3 -33 6 -62 6 -29
-1 -50 2 -47 7 3 4 -6 4 -20 -2 -26 -10 -43 1 -31 20 3 6 1 10 -4 10 -6 0 -11
11 -11 25 0 25 0 25 96 25 l95 0 -3 -49z m248 8 c-4 -43 -19 -68 -30 -50 -4 6
-2 11 5 11 7 0 10 2 8 5 -3 2 -23 0 -45 -6 -21 -6 -58 -12 -81 -13 l-43 -2 0
41 c0 23 3 45 7 48 3 4 46 7 95 7 l88 0 -4 -41z"/>
<path d="M2526 3084 c-20 -20 -9 -46 18 -42 25 4 34 43 12 51 -9 4 -22 -1 -30
-9z"/>
<path d="M2527 2935 c-10 -22 -29 -41 -48 -49 l-31 -13 36 -21 c20 -12 41 -33
47 -46 l12 -25 21 32 c12 18 35 38 50 46 l29 14 -31 13 c-18 7 -38 28 -49 49
l-19 36 -17 -36z"/>
<path d="M2340 2855 c-18 -21 -4 -47 22 -43 29 4 35 34 10 47 -15 8 -23 7 -32
-4z"/>
<path d="M2712 2853 c-13 -26 -4 -43 24 -43 22 0 25 4 22 27 -4 33 -32 43 -46
16z"/>
<path d="M2670 1120 c-8 -5 -10 -10 -5 -10 6 0 17 5 25 10 8 5 11 10 5 10 -5
0 -17 -5 -25 -10z"/>
<path d="M3650 3428 c-76 -39 -104 -128 -40 -128 47 0 97 73 88 129 l-3 22
-45 -23z"/>
<path d="M1375 3403 c9 -49 38 -89 74 -101 35 -12 51 0 51 39 0 35 -69 99
-106 99 -25 0 -26 -2 -19 -37z"/>
<path d="M2524 3426 c-9 -24 4 -48 23 -44 12 2 18 12 18 28 0 29 -32 41 -41
16z"/>
<path d="M1562 3305 c2 -55 1 -64 -12 -58 -8 4 -43 9 -78 11 -59 4 -63 3 -54
-15 29 -53 87 -83 162 -83 38 0 50 4 54 18 14 51 16 81 6 108 -12 31 -58 84
-73 84 -5 0 -7 -29 -5 -65z"/>
<path d="M3478 3350 c-14 -10 -31 -33 -38 -50 -14 -34 -8 -103 10 -125 15 -18
76 -20 117 -4 29 11 93 67 93 81 0 11 -107 10 -129 -1 -15 -9 -16 -4 -13 55 5
69 -1 75 -40 44z"/>
<path d="M1178 3173 c-51 -13 31 -120 105 -137 62 -15 84 17 51 74 -27 45
-105 76 -156 63z"/>
<path d="M3827 3170 c-45 -8 -83 -41 -97 -86 -14 -40 -7 -54 25 -54 52 0 107
32 136 79 16 25 26 48 22 52 -15 13 -48 16 -86 9z"/>
<path d="M1679 3124 c-10 -12 -9 -18 3 -31 19 -18 38 -10 38 17 0 24 -25 33
-41 14z"/>
<path d="M3360 3111 c0 -24 13 -33 35 -25 23 9 14 38 -13 42 -16 3 -22 -2 -22
-17z"/>
<path d="M1597 3006 c-3 -8 0 -20 8 -26 20 -17 50 -8 50 15 0 25 -49 34 -58
11z"/>
<path d="M3427 3014 c-10 -11 -9 -42 3 -49 20 -12 51 6 48 28 -3 22 -36 35
-51 21z"/>
<path d="M347 2283 c-4 -3 -7 -37 -7 -74 0 -74 4 -79 66 -79 l34 0 0 80 0 80
-43 0 c-24 0 -47 -3 -50 -7z"/>
<path d="M4670 2211 l0 -81 45 0 c52 0 58 11 53 101 l-3 54 -47 3 -48 3 0 -80z"/>
<path d="M456 2064 c-8 -21 -8 -24 5 -24 5 0 7 5 4 10 -3 6 -1 10 4 10 6 0 11
5 11 10 0 16 -17 12 -24 -6z"/>
</g>
</svg>
